<?xml version="1.0" encoding="UTF-8"?> <svg xmlns="http://www.w3.org/2000/svg" width="413" height="58" viewBox="0 0 413 58" fill="none"><g clip-path="url(#clip0_81_246)"><path d="M124.76 20.56C124.69 18.94 124.62 17.31 124.52 15.67L125.92 15.81C126.42 15.81 126.98 15.81 127.62 15.81C128.49 15.81 129.4 15.81 130.36 15.72C131.32 15.63 132.22 15.63 133.13 15.63C134.534 15.594 135.938 15.7283 137.31 16.03C138.177 16.2221 138.988 16.6123 139.68 17.17C140.433 17.754 141.042 18.5032 141.46 19.36C141.867 20.2745 142.062 21.2694 142.03 22.27C142.068 23.5415 141.822 24.8054 141.31 25.97C140.874 26.9667 140.184 27.832 139.31 28.48C138.387 29.1427 137.344 29.6215 136.24 29.89C134.969 30.2098 133.661 30.3644 132.35 30.35H130.43C130.43 32.23 130.43 34.11 130.5 35.99C130.57 37.87 130.61 39.72 130.73 41.55C130.268 41.4998 129.804 41.4764 129.34 41.48H125.94C125.472 41.4763 125.005 41.4997 124.54 41.55C124.64 39.98 124.71 38.4 124.78 36.78C124.85 35.16 124.84 33.3 124.84 31.21V26.13C124.84 24.03 124.84 22.18 124.78 20.56M135.78 20.56C135.616 19.9784 135.322 19.4416 134.92 18.99C134.569 18.6039 134.13 18.3087 133.64 18.13C133.148 17.9612 132.63 17.8767 132.11 17.88H130.87C130.758 17.8593 130.642 17.8593 130.53 17.88C130.53 19.68 130.48 21.46 130.48 23.21C130.48 24.96 130.48 26.71 130.48 28.46C131.131 28.4623 131.781 28.402 132.42 28.28C133.079 28.1633 133.701 27.8964 134.24 27.5C134.835 27.073 135.308 26.4971 135.61 25.83C135.993 24.9126 136.174 23.9235 136.14 22.93C136.161 22.1141 136.05 21.3002 135.81 20.52" fill="#0C72BA"></path><path d="M150.57 19.83C150.569 19.3855 150.543 18.9414 150.49 18.5C150.1 18.5 149.64 18.5 149.09 18.5L147.32 18.59C146.68 18.59 146.04 18.67 145.4 18.74C144.76 18.81 144.15 18.87 143.57 18.95C143.63 18.67 143.67 18.39 143.71 18.12C143.755 17.8457 143.775 17.5679 143.77 17.29C143.775 17.0121 143.755 16.7343 143.71 16.46C143.71 16.18 143.63 15.91 143.57 15.63L145.9 15.71C146.58 15.71 147.29 15.71 148.01 15.77H150.35C151.19 15.77 152.2 15.77 153.35 15.77C154.5 15.77 155.54 15.77 156.35 15.77H158.67C159.37 15.77 160.05 15.77 160.67 15.71L162.85 15.63C162.8 15.91 162.75 16.18 162.72 16.46C162.683 16.7351 162.667 17.0125 162.67 17.29C162.667 17.5675 162.684 17.8449 162.72 18.12C162.72 18.39 162.8 18.67 162.85 18.95C162.35 18.87 161.79 18.8 161.16 18.74C160.53 18.68 159.89 18.63 159.28 18.59L157.54 18.5C156.97 18.5 156.54 18.5 156.14 18.5C156.104 18.6744 156.084 18.8519 156.08 19.03C156.08 19.25 156.08 19.52 156.08 19.83V31.25C156.08 33.34 156.08 35.25 156.16 36.82C156.24 38.39 156.28 40.02 156.38 41.59C155.915 41.5397 155.448 41.5163 154.98 41.52H151.59C151.122 41.5169 150.655 41.5402 150.19 41.59C150.3 40.02 150.37 38.44 150.42 36.82C150.47 35.2 150.5 33.34 150.5 31.25V21.82C150.5 21.1 150.5 20.42 150.5 19.82" fill="#0C72BA"></path><path d="M179.14 33.15C178.94 35.95 178.75 38.77 178.54 41.59C178.239 41.5411 177.935 41.5177 177.63 41.52H175.88C175.585 41.5181 175.291 41.5415 175 41.59C175.8 37.2567 176.517 32.9567 177.15 28.69C177.76 24.41 178.36 20.08 178.88 15.69L179.65 15.84C179.9 15.84 180.16 15.84 180.44 15.84C180.72 15.84 180.89 15.84 181.14 15.84L181.93 15.69C182.62 17.21 183.33 18.74 184.07 20.3C184.81 21.86 185.55 23.42 186.29 24.96C187.03 26.5 187.78 28.02 188.53 29.51C189.28 31 189.97 32.4 190.65 33.73C192.17 30.92 193.65 27.97 195.16 24.89C196.67 21.81 198.09 18.74 199.45 15.69C199.985 15.8134 200.531 15.8771 201.08 15.88C201.605 15.875 202.129 15.8113 202.64 15.69C202.9 17.86 203.18 20.19 203.45 22.69C203.72 25.19 204.04 27.61 204.31 29.99C204.58 32.37 204.88 34.58 205.15 36.65C205.42 38.72 205.68 40.37 205.9 41.65C205.4 41.6 204.9 41.58 204.38 41.58H201.3C200.77 41.58 200.23 41.58 199.72 41.65C199.593 39.07 199.383 36.2633 199.09 33.23C198.797 30.1967 198.5 27.1967 198.2 24.23H198.12C196.707 27.1833 195.297 30.1067 193.89 33C192.51 35.87 191.13 38.76 189.79 41.64C189.672 41.61 189.551 41.5932 189.43 41.59H189.07H188.71C188.585 41.5932 188.461 41.61 188.34 41.64C187 38.82 185.63 36 184.29 33.2C182.95 30.4 181.56 27.51 180.12 24.62H180.06C179.65 27.51 179.35 30.37 179.14 33.2" fill="#0C72BA"></path><path d="M217.58 41.57C216.261 41.2711 215.02 40.695 213.94 39.88C212.896 39.0671 212.06 38.0185 211.5 36.82C210.869 35.3885 210.568 33.8334 210.62 32.27C210.62 31.27 210.62 30.37 210.62 29.58C210.62 28.79 210.62 28.05 210.62 27.37C210.62 26.69 210.62 26.03 210.62 25.37C210.62 24.71 210.62 24.09 210.62 23.37C210.62 21.37 210.62 19.69 210.62 18.43C210.62 17.17 210.54 16.23 210.5 15.6C211 15.65 211.5 15.7 212.04 15.73C212.58 15.76 213.04 15.73 213.59 15.73C214.14 15.73 214.59 15.73 215.14 15.73C215.69 15.73 216.14 15.65 216.69 15.6C216.43 18.03 216.29 20.31 216.23 22.41C216.17 24.51 216.16 26.65 216.16 28.8C216.117 30.6624 216.281 32.5239 216.65 34.35C216.879 35.5329 217.375 36.6479 218.1 37.61C218.703 38.3596 219.53 38.8959 220.46 39.14C221.518 39.4128 222.608 39.5406 223.7 39.52C224.984 39.5967 226.251 39.19 227.25 38.38C228.167 37.5718 228.857 36.5375 229.25 35.38C229.711 33.9825 229.984 32.5296 230.06 31.06C230.15 29.44 230.22 27.75 230.22 25.97C230.22 24.19 230.22 22.52 230.14 20.8C230.06 19.08 230.01 17.34 229.9 15.61C230.26 15.66 230.59 15.71 230.9 15.74C231.21 15.77 231.53 15.74 231.8 15.74C232.07 15.74 232.45 15.74 232.8 15.74C233.15 15.74 233.42 15.66 233.73 15.61C233.73 16.16 233.63 16.91 233.59 17.83C233.55 18.75 233.48 19.83 233.44 21.07C233.4 22.31 233.34 23.63 233.3 25.07C233.26 26.51 233.23 28.07 233.23 29.72C233.23 34.11 232.3 37.24 230.41 39.14C228.52 41.04 225.77 41.99 222.11 41.99C220.595 42.0059 219.083 41.8346 217.61 41.48" fill="#0C72BA"></path><path d="M245.51 29.71V31.25C245.51 33.34 245.51 35.25 245.59 36.82C245.67 38.39 245.73 40.02 245.83 41.59C245.365 41.5402 244.898 41.5169 244.43 41.52H241C240.536 41.5164 240.072 41.5398 239.61 41.59C239.71 40.02 239.78 38.44 239.84 36.82C239.9 35.2 239.9 33.34 239.9 31.25V26.13C239.9 24.03 239.9 22.18 239.84 20.56C239.78 18.94 239.71 17.31 239.61 15.67L241 15.81C241.5 15.81 242.06 15.81 242.69 15.81C243.32 15.81 244.15 15.81 245.02 15.72C245.89 15.63 246.96 15.63 248.24 15.63C249.24 15.63 250.02 15.63 250.7 15.71C251.287 15.7467 251.872 15.8201 252.45 15.93C252.893 16.0185 253.325 16.1526 253.74 16.33C254.092 16.4895 254.427 16.6838 254.74 16.91C255.506 17.4591 256.138 18.1734 256.59 19C257.053 19.9091 257.28 20.9202 257.25 21.94C257.314 23.5665 256.781 25.1602 255.75 26.42C254.592 27.6661 253.075 28.5221 251.41 28.87C252.623 31.0167 253.917 33.15 255.29 35.27C256.68 37.4 258.05 39.5 259.44 41.59C258.85 41.54 258.3 41.52 257.74 41.52H254.34C253.77 41.52 253.18 41.52 252.62 41.59L245.86 29.71H245.51ZM251.14 20.12C250.966 19.5329 250.618 19.013 250.14 18.63C249.607 18.2609 248.986 18.0369 248.34 17.98C247.458 17.8714 246.569 17.8213 245.68 17.83C245.59 21.24 245.56 24.66 245.56 28.09L246.01 28.14C246.14 28.1502 246.27 28.1502 246.4 28.14C247.093 28.1861 247.788 28.0911 248.442 27.8607C249.097 27.6304 249.699 27.2695 250.21 26.8C250.686 26.2434 251.047 25.598 251.271 24.9012C251.496 24.2043 251.581 23.4697 251.52 22.74C251.549 21.8482 251.437 20.9574 251.19 20.1" fill="#0C72BA"></path><path d="M263.25 18.8C263.2 17.62 263.17 16.57 263.13 15.67C263.694 15.7804 264.266 15.8406 264.84 15.85C265.411 15.8396 265.98 15.7794 266.54 15.67C269.28 18.71 271.99 21.71 274.67 24.67C277.35 27.6 280.09 30.6 282.9 33.67V23C282.9 21.81 282.9 20.71 282.84 19.71C282.78 18.71 282.84 17.83 282.78 17.11C282.771 16.6143 282.727 16.1198 282.65 15.63C283.21 15.7413 283.779 15.8015 284.35 15.81C284.918 15.8005 285.483 15.7403 286.04 15.63C285.91 17.92 285.82 19.99 285.74 21.84C285.66 23.69 285.6 25.43 285.55 27.06C285.5 28.69 285.47 30.32 285.45 31.91C285.43 33.5 285.45 35.21 285.45 37.02V41.55C284.94 41.5 284.45 41.48 283.91 41.48C283.412 41.4748 282.915 41.4982 282.42 41.55C277.247 35.55 271.75 29.4767 265.93 23.33C265.93 24.06 265.93 24.79 265.93 25.51C265.93 26.23 265.93 26.99 265.93 27.75V32.12C265.93 33.63 265.93 34.91 265.93 35.97C265.93 37.03 265.93 37.97 265.93 38.64C265.93 39.31 265.99 39.98 266.01 40.44C266.03 40.9 266.06 41.27 266.08 41.55C265.782 41.5011 265.481 41.4777 265.18 41.48H264.33C263.74 41.48 263.17 41.48 262.58 41.55C262.58 41.36 262.69 40.63 262.77 39.39C262.85 38.15 262.93 36.66 263.01 34.89C263.09 33.12 263.18 31.19 263.25 29.11C263.32 27.03 263.34 25.05 263.34 23.11C263.34 21.37 263.34 19.91 263.26 18.73" fill="#0C72BA"></path><path d="M292.41 20.56C292.41 18.93 292.3 17.31 292.18 15.67L293.58 15.81C294.09 15.81 294.66 15.81 295.29 15.81C295.92 15.81 296.48 15.81 296.98 15.81L298.37 15.67C298.28 17.31 298.2 18.93 298.16 20.56C298.12 22.19 298.07 24.03 298.07 26.13V31.25C298.07 33.34 298.07 35.25 298.16 36.82C298.25 38.39 298.28 40.02 298.37 41.59C297.908 41.5398 297.444 41.5164 296.98 41.52H293.58C293.112 41.5166 292.645 41.5399 292.18 41.59C292.3 40.02 292.37 38.44 292.41 36.82C292.45 35.2 292.5 33.34 292.5 31.25V26.13C292.5 24.03 292.5 22.18 292.41 20.56Z" fill="#0C72BA"></path><path fill-rule="evenodd" clip-rule="evenodd" d="M87 16.91C82 11.79 77.76 7.49002 77.45 7.32002C76.6747 6.91357 75.7738 6.81705 74.93 7.05002C73.85 7.28002 69.77 10.73 69.77 10.73C69.77 10.73 50.7 27.65 49.87 28.13C49.4786 28.3702 49.0372 28.5173 48.58 28.56C46.25 28.63 42.9 24.88 41.49 23.63C35.95 18.63 31.11 14.48 25.68 9.33002C23.68 7.43002 22.07 6.50002 19.84 7.79002C19.47 8.00002 0 22.75 0 22.75V39.82C0 39.82 24.38 22.72 24.81 22.39C25.4794 21.8163 26.3117 21.4666 27.19 21.39C28.41 21.39 29.59 22.63 30.74 23.54C37.21 28.67 49.97 39.23 50.33 39.54C51.77 40.76 53.19 41.77 55.91 41.01C58.33 40.34 71.45 26.87 76.54 21.78C79.2 19.11 80.33 18.96 81.87 19.69C82.3356 20.0242 82.7706 20.399 83.17 20.81C83.39 20.49 86.94 17.02 87.01 16.96" fill="#0C72BA"></path><path fill-rule="evenodd" clip-rule="evenodd" d="M89.66 19.63C89.56 19.85 86.82 23.76 86.46 24.03C87.46 25.03 88.2 25.82 88.2 25.82C93.48 31.14 104.12 41.72 104.12 41.72L104.24 34.63C104.24 34.63 96.73 26.88 89.66 19.63Z" fill="#0C72BA"></path><path d="M103.94 0C104.21 0 104.21 0.33 104 0.64C103.71 1.21 65.2 53.03 63.56 54.57C61.7707 56.2307 59.4401 57.1864 57 57.26C55.4534 57.2686 53.9428 56.7931 52.68 55.9C45.43 50.9 28.35 35.74 25.76 34.63C25.239 34.4371 24.6851 34.3488 24.13 34.37C23.7556 34.3712 23.3816 34.3945 23.01 34.44C21.14 34.71 16.38 37.03 15.58 37.44C13.23 38.59 10.85 39.72 8.46 40.82C6.75 41.61 2.35 43.5 1.9 43.69C1.67886 43.7729 1.44596 43.8202 1.21 43.83C0.920001 43.83 0.780001 43.68 1.33 43.13C2.09 42.43 6.89 39.07 6.89 39.07C6.89 39.07 18.19 31 23.79 26.79C24.93 25.93 26 25 27.5 25H27.83C28.8069 25.1588 29.7245 25.5728 30.49 26.2C32 27.32 51.81 44 54 44.89C54.6345 45.1516 55.3137 45.2874 56 45.29C57.1117 45.2843 58.1945 44.9351 59.1 44.29C59.23 44.2 97.31 6.29 102.9 0.71C103.4 0.22 103.73 0.04 103.9 0.04M99.38 5.31C99.23 5.24 98.38 6.04 98.38 6.12C95.53 8.89 92 12.46 88.1 16.31C59.58 44.7 59.55 44.72 59.42 44.8C58.4241 45.5198 57.2287 45.9113 56 45.92C55.2344 45.9176 54.4766 45.7647 53.77 45.47C52.2 44.82 43.46 37.68 34.64 30.47C32.33 28.56 30.49 27.07 30.11 26.78C29.4389 26.2181 28.632 25.8422 27.77 25.69H27.5C26.3709 25.783 25.3097 26.2676 24.5 27.06L24.12 27.35C18.62 31.43 7.35 39.48 7.24 39.56L5.53 40.78C4.81 41.29 4.64 41.47 4.76 41.6C4.88 41.73 5.29 41.44 5.67 41.34L8.18 40.23C10.6 39.11 12.98 37.98 15.28 36.85C16.6 36.2 21.02 34.09 22.91 33.85C23.3077 33.7957 23.7086 33.7689 24.11 33.77C24.7552 33.7471 25.3983 33.856 26 34.09C27.32 34.65 31.44 38.04 38.07 43.51C43.41 47.9 49.46 52.92 53 55.38C54.1727 56.1989 55.5697 56.6355 57 56.63C59.289 56.5606 61.4747 55.6614 63.15 54.1C64.46 52.85 88.76 20.17 99 6.38C99 6.38 99.67 5.49 99.4 5.31" fill="#636467"></path></g><path fill-rule="evenodd" clip-rule="evenodd" d="M403.512 13.5834L394.216 26.5555L389.502 20.4108V27.0413L394.216 32.0831L403.512 18.4807V13.5834Z" fill="#77787B"></path><path fill-rule="evenodd" clip-rule="evenodd" d="M395.122 16.682C396.533 16.6806 397.936 16.8931 399.284 17.3122L399.494 16.8921L399.835 16.7608L399.704 16.3406L400.807 13.7147L400.741 13.5177C400.82 13.5182 400.897 13.5008 400.968 13.4666C401.038 13.4325 401.1 13.3826 401.148 13.3208C401.174 13.228 401.168 13.1291 401.129 13.0406C401.091 12.9522 401.024 12.8796 400.938 12.835C400.873 12.8026 400.801 12.7857 400.728 12.7857C400.655 12.7857 400.583 12.8026 400.518 12.835C400.518 12.835 400.518 12.6905 400.662 12.4805C400.726 12.5569 400.796 12.6272 400.873 12.6905C400.918 12.7096 400.967 12.7192 401.016 12.7189C401.066 12.7186 401.115 12.7083 401.16 12.6887C401.205 12.6691 401.246 12.6406 401.28 12.6048C401.314 12.569 401.341 12.5267 401.358 12.4805C401.384 12.4311 401.399 12.3767 401.403 12.321C401.406 12.2653 401.397 12.2096 401.378 12.1574C401.358 12.1053 401.327 12.058 401.287 12.0186C401.248 11.9792 401.2 11.9487 401.148 11.929C401.009 11.9027 400.867 11.9027 400.728 11.929V11.6533C400.873 11.6533 400.938 11.6533 401.083 11.6533C401.227 11.6533 401.424 11.4432 401.358 11.2332C401.349 11.1435 401.309 11.06 401.244 10.9975C401.179 10.935 401.094 10.8975 401.004 10.8918C400.881 10.9467 400.767 11.0173 400.662 11.1019C400.641 10.9982 400.591 10.9027 400.518 10.8261C400.662 10.8261 400.728 10.8261 400.794 10.7605C400.838 10.7508 400.879 10.7315 400.915 10.7038C400.95 10.6761 400.979 10.6409 400.999 10.6006C401.019 10.5603 401.03 10.516 401.031 10.471C401.032 10.426 401.022 10.3813 401.004 10.3403C400.988 10.2929 400.963 10.2493 400.929 10.2124C400.895 10.1756 400.854 10.1463 400.808 10.1264C400.762 10.1066 400.713 10.0967 400.663 10.0973C400.613 10.098 400.563 10.1092 400.518 10.1303C400.452 10.1303 400.308 10.2747 400.242 10.406C400.177 10.5373 400.098 10.1959 400.032 10.1303C400.135 10.114 400.231 10.0684 400.308 9.99896C400.342 9.9682 400.369 9.9307 400.387 9.88887C400.406 9.84704 400.415 9.8018 400.415 9.75606C400.415 9.71032 400.406 9.66509 400.387 9.62326C400.369 9.58143 400.342 9.54393 400.308 9.51316C400.242 9.45131 400.155 9.41687 400.065 9.41687C399.975 9.41687 399.888 9.45131 399.822 9.51316C399.743 9.64058 399.694 9.78419 399.678 9.93331C399.577 9.84415 399.461 9.77308 399.336 9.72324C399.456 9.66355 399.552 9.56681 399.612 9.44752C399.628 9.4063 399.636 9.3621 399.634 9.31781C399.632 9.27351 399.621 9.23012 399.601 9.19047C399.581 9.15081 399.553 9.11579 399.519 9.08768C399.485 9.05958 399.445 9.03902 399.402 9.02737C399.356 9.00834 399.307 8.99869 399.258 8.999C399.209 8.99932 399.16 9.00959 399.114 9.02919C399.069 9.0488 399.028 9.07735 398.994 9.11313C398.96 9.14891 398.934 9.19119 398.916 9.23744C398.916 9.30309 398.916 9.51316 398.995 9.64446C398.83 9.6163 398.661 9.6163 398.496 9.64446C398.555 9.56941 398.587 9.47712 398.588 9.38187C398.582 9.29335 398.544 9.21004 398.481 9.1473C398.418 9.08455 398.335 9.04662 398.247 9.0405C398.197 9.03505 398.146 9.03958 398.098 9.05383C398.049 9.06808 398.004 9.09176 397.965 9.12351C397.926 9.15525 397.894 9.19443 397.87 9.23878C397.846 9.28313 397.831 9.33176 397.826 9.38187C397.826 9.52629 397.971 9.65759 398.037 9.72324C397.887 9.80519 397.721 9.85442 397.551 9.86767C397.551 9.80202 397.616 9.65759 397.551 9.59194C397.485 9.52629 397.275 9.25057 397.131 9.31622C396.986 9.38187 396.789 9.59194 396.855 9.72324C396.904 9.86912 397.001 9.99405 397.131 10.0777C397.005 10.0803 396.884 10.1268 396.789 10.209C396.756 10.1938 396.72 10.1858 396.684 10.1858C396.648 10.1858 396.612 10.1938 396.579 10.209C396.627 10.1393 396.652 10.057 396.652 9.9727C396.652 9.88841 396.627 9.80606 396.579 9.73637C396.579 9.59194 396.369 9.46065 396.159 9.52629C396.115 9.53525 396.073 9.55443 396.038 9.5823C396.002 9.61017 395.974 9.64596 395.955 9.6868C395.936 9.72764 395.926 9.7724 395.928 9.81749C395.929 9.86257 395.941 9.90674 395.962 9.94644C395.962 10.0777 396.093 10.209 396.238 10.2878C396.079 10.3341 395.911 10.3341 395.752 10.2878V9.99896L395.608 9.85454C395.818 9.57881 395.962 9.51316 395.962 9.09301C395.969 8.93737 395.941 8.78218 395.879 8.63898C395.818 8.49578 395.725 8.36824 395.608 8.26584C395.495 8.20232 395.398 8.11356 395.325 8.00652C395.252 7.89947 395.205 7.77703 395.187 7.64875V7.50432C395.379 7.49172 395.571 7.51854 395.752 7.5831V6.82158C395.598 6.9624 395.396 7.03777 395.187 7.03165V6.82158C395.244 6.67514 395.314 6.53444 395.397 6.40143H394.636C394.719 6.53444 394.79 6.67514 394.846 6.82158V7.03165C394.627 7.04037 394.409 6.99052 394.216 6.88723V7.5831C394.419 7.51824 394.633 7.49154 394.846 7.50432V7.64875C394.772 7.91085 394.626 8.14721 394.426 8.33149C394.216 8.41027 394.084 8.75164 394.084 9.09301C394.084 9.43439 394.216 9.57881 394.426 9.85454L394.216 9.99896V10.3403C394.216 10.3403 394.15 10.3403 393.796 10.3403C393.94 10.2616 394.084 10.1303 394.084 9.99896C394.084 9.86767 394.006 9.64446 393.874 9.57881C393.782 9.55281 393.683 9.55949 393.594 9.59774C393.506 9.63599 393.433 9.70347 393.389 9.78889C393.357 9.94484 393.357 10.1056 393.389 10.2616C393.389 10.2616 393.389 10.2616 393.257 10.2616L392.903 10.1303C393.047 10.1303 393.113 9.92019 393.179 9.85454C393.192 9.75452 393.173 9.65274 393.123 9.56494C393.073 9.47713 392.996 9.40818 392.903 9.36874C392.693 9.36874 392.561 9.43439 392.483 9.64446C392.45 9.69535 392.432 9.75461 392.432 9.81515C392.432 9.87569 392.45 9.93494 392.483 9.98583C392.351 9.98583 392.141 9.85454 391.931 9.77576C391.98 9.77425 392.028 9.76262 392.072 9.74159C392.117 9.72057 392.156 9.69061 392.188 9.6536C392.22 9.61659 392.244 9.57334 392.259 9.52657C392.273 9.4798 392.278 9.43053 392.273 9.38187C392.276 9.33769 392.271 9.29325 392.257 9.25122C392.243 9.20919 392.22 9.17044 392.191 9.13731C392.161 9.10419 392.125 9.07737 392.085 9.05847C392.045 9.03958 392.002 9.02899 391.957 9.02737C391.912 9.02551 391.867 9.03308 391.825 9.04958C391.782 9.06608 391.744 9.09116 391.712 9.12323C391.68 9.15531 391.655 9.19369 391.638 9.23594C391.622 9.2782 391.614 9.32341 391.616 9.36874C391.639 9.49161 391.688 9.60807 391.761 9.71011C391.616 9.71011 391.406 9.71011 391.275 9.71011C391.308 9.57642 391.308 9.43678 391.275 9.30309C391.237 9.21191 391.165 9.13904 391.074 9.09984C390.984 9.06065 390.881 9.0582 390.789 9.09301C390.741 9.10873 390.698 9.1343 390.661 9.16805C390.624 9.20179 390.595 9.24296 390.575 9.28883C390.555 9.33471 390.545 9.38426 390.546 9.43423C390.547 9.48421 390.558 9.53348 390.579 9.57881C390.644 9.57881 390.723 9.78889 390.789 9.78889C390.682 9.86878 390.567 9.93907 390.448 9.99896C390.471 9.92793 390.475 9.85225 390.462 9.77885C390.448 9.70544 390.416 9.63667 390.369 9.57881C390.291 9.51478 390.194 9.47976 390.093 9.47976C389.992 9.47976 389.895 9.51478 389.817 9.57881C389.783 9.60958 389.756 9.64708 389.738 9.68891C389.719 9.73074 389.71 9.77597 389.71 9.82171C389.71 9.86745 389.719 9.91269 389.738 9.95452C389.756 9.99635 389.783 10.0338 389.817 10.0646C389.817 10.1303 390.027 10.1959 390.093 10.2616C390.018 10.3509 389.923 10.4226 389.817 10.4716C389.817 10.3403 389.673 10.2616 389.607 10.1959C389.56 10.1661 389.507 10.147 389.451 10.1402C389.396 10.1333 389.339 10.1387 389.286 10.1561C389.233 10.1734 389.184 10.2023 389.143 10.2406C389.103 10.2789 389.071 10.3258 389.05 10.3778C389.03 10.4298 389.021 10.4857 389.024 10.5415C389.028 10.5974 389.043 10.6517 389.07 10.7008C389.097 10.7499 389.134 10.7924 389.18 10.8254C389.225 10.8585 389.277 10.8811 389.332 10.8918H389.607C389.534 10.9683 389.484 11.0639 389.463 11.1675C389.371 11.0784 389.249 11.0269 389.121 11.0231C389.079 11.007 389.034 11.002 388.989 11.0087C388.944 11.0153 388.902 11.0334 388.867 11.0611C388.831 11.0888 388.803 11.1253 388.786 11.1669C388.768 11.2085 388.762 11.254 388.767 11.2988C388.75 11.3457 388.745 11.3958 388.752 11.4451C388.758 11.4944 388.776 11.5415 388.804 11.5825C388.833 11.6234 388.87 11.6572 388.914 11.6809C388.957 11.7046 389.006 11.7177 389.056 11.719C389.167 11.7504 389.286 11.7504 389.397 11.719V12.0078C389.32 11.9749 389.238 11.958 389.154 11.958C389.071 11.958 388.988 11.9749 388.911 12.0078C388.842 12.0467 388.789 12.1094 388.763 12.1842C388.736 12.2591 388.738 12.341 388.767 12.4148C388.779 12.4576 388.799 12.4974 388.827 12.5317C388.855 12.566 388.89 12.594 388.93 12.6138C388.97 12.6336 389.013 12.6449 389.057 12.6468C389.102 12.6487 389.146 12.6412 389.187 12.6249C389.332 12.6249 389.397 12.4936 389.463 12.4148C389.542 12.6249 389.607 12.7693 389.607 12.7693H389.187C389.103 12.8157 389.037 12.8885 388.999 12.9764C388.961 13.0643 388.953 13.1623 388.977 13.2551C389.027 13.3189 389.091 13.3708 389.164 13.4071C389.236 13.4435 389.316 13.4633 389.397 13.4652V13.6621L390.513 16.2881L390.369 16.7082L390.71 16.8395L390.92 17.2597C392.293 16.8347 393.724 16.6221 395.161 16.6295M393.73 15.0276C393.94 14.6206 394.216 14.2661 394.702 14.2661C394.636 14.7519 394.426 15.2377 393.73 15.2377C393.449 15.2449 393.175 15.1506 392.958 14.9722C392.741 14.7937 392.596 14.5431 392.548 14.2661C392.554 14.2138 392.579 14.1653 392.617 14.1292C392.656 14.0932 392.706 14.0719 392.758 14.0692C392.798 14.0694 392.838 14.0799 392.873 14.0996C392.908 14.1193 392.937 14.1475 392.958 14.1816C392.979 14.2158 392.991 14.2547 392.993 14.2947C392.995 14.3348 392.986 14.3746 392.968 14.4105C393.038 14.4091 393.106 14.3933 393.168 14.3643C393.231 14.3352 393.287 14.2934 393.332 14.2415C393.378 14.1897 393.413 14.1289 393.434 14.0631C393.454 13.9973 393.462 13.9278 393.454 13.8591C393.454 13.649 393.179 13.4389 392.89 13.4389C392.743 13.446 392.601 13.4963 392.483 13.5834C392.393 13.2603 392.251 12.9542 392.063 12.6774C391.787 12.4805 391.787 12.4805 391.721 12.7562C391.61 13.066 391.61 13.4049 391.721 13.7147C391.577 13.7147 391.025 13.7934 391.025 14.2661C391.025 14.7388 391.235 14.7519 391.367 14.7519C391.496 14.7491 391.621 14.7029 391.721 14.6206C391.577 14.5418 391.577 14.5418 391.577 14.4762C391.593 14.4271 391.62 14.3825 391.657 14.346C391.693 14.3095 391.738 14.2821 391.787 14.2661C391.997 14.2661 392.063 14.4762 392.063 14.6863C392.052 14.8865 391.972 15.0768 391.836 15.2238C391.7 15.3709 391.516 15.4652 391.317 15.4902C391.118 15.5153 390.916 15.4695 390.748 15.3609C390.579 15.2523 390.454 15.0878 390.395 14.8963C390.545 14.9024 390.691 14.9514 390.814 15.0375C390.937 15.1236 391.033 15.2432 391.091 15.3821L391.235 15.3034L390.395 13.3208H390.264C390.364 13.4678 390.436 13.6327 390.474 13.8066C390.474 14.0166 390.329 14.2924 390.185 14.2924C390.041 14.2924 390.054 14.1479 390.054 13.8066C390.062 13.5188 390.134 13.2365 390.264 12.9794C390.03 12.6252 389.886 12.2198 389.844 11.7977C389.85 11.3414 390.036 10.9059 390.36 10.5845C390.683 10.263 391.12 10.0811 391.577 10.0777C392.548 10.0777 392.824 10.6292 394.281 10.7736V12.336C394.205 12.4091 394.109 12.4591 394.006 12.4805V12.6118C394.426 12.9663 394.702 12.9663 394.767 13.5834C394.281 13.5834 394.071 13.4389 393.796 12.8218H393.586V15.0276H393.73ZM400.111 13.8591C400.111 14.2005 400.111 14.2661 399.98 14.3449C399.848 14.4237 399.835 14.0692 399.835 13.8591C399.841 13.6772 399.867 13.4966 399.914 13.3208H399.835L399.008 15.3165L399.139 15.3953C399.195 15.2539 399.29 15.1315 399.414 15.043C399.537 14.9545 399.684 14.9035 399.835 14.8963C399.795 15.0815 399.689 15.2458 399.537 15.3592C399.385 15.4725 399.197 15.5273 399.008 15.5134C398.888 15.5301 398.765 15.5191 398.649 15.4812C398.533 15.4433 398.428 15.3795 398.34 15.2947C398.253 15.2099 398.186 15.1063 398.145 14.9917C398.104 14.8772 398.089 14.7548 398.102 14.6337C398.102 14.4237 398.102 14.2136 398.378 14.2136C398.427 14.2296 398.472 14.257 398.508 14.2935C398.545 14.33 398.572 14.3746 398.588 14.4237C398.588 14.4237 398.588 14.4237 398.588 14.5681C398.588 14.7125 398.719 14.6994 398.864 14.6994C398.983 14.6893 399.094 14.6329 399.173 14.5421C399.251 14.4513 399.291 14.3334 399.284 14.2136C399.284 13.7409 398.654 13.6621 398.509 13.6621C398.62 13.3523 398.62 13.0135 398.509 12.7037C398.509 12.428 398.509 12.428 398.168 12.6249C397.979 12.9017 397.837 13.2078 397.748 13.5308C397.629 13.4438 397.488 13.3935 397.341 13.3864C397.065 13.3864 396.776 13.5965 396.776 13.8066C396.769 13.8753 396.776 13.9447 396.797 14.0106C396.818 14.0764 396.852 14.1372 396.898 14.189C396.944 14.2408 396.999 14.2826 397.062 14.3117C397.125 14.3408 397.193 14.3566 397.262 14.358C397.244 14.3221 397.236 14.2823 397.237 14.2422C397.239 14.2022 397.251 14.1633 397.272 14.1291C397.293 14.095 397.323 14.0667 397.358 14.0471C397.392 14.0274 397.432 14.0169 397.472 14.0166C397.525 14.0194 397.575 14.0407 397.613 14.0767C397.651 14.1128 397.676 14.1612 397.682 14.2136C397.635 14.4905 397.489 14.7412 397.272 14.9196C397.055 15.0981 396.781 15.1924 396.5 15.1852C395.804 15.1852 395.594 14.6994 395.529 14.2136C395.751 14.2197 395.965 14.297 396.14 14.4341C396.315 14.5712 396.441 14.7608 396.5 14.9751H396.645V12.8218H396.435C396.159 13.4389 395.949 13.5834 395.463 13.5834C395.529 12.9663 395.804 12.9663 396.29 12.6118V12.4805C396.145 12.4861 396.004 12.4342 395.896 12.336V10.6948C397.078 10.5635 397.564 10.0121 398.522 10.0121C398.987 10.0425 399.425 10.2401 399.756 10.5683C400.086 10.8965 400.287 11.3331 400.321 11.7977C400.275 12.2171 400.136 12.6209 399.914 12.9794C400.034 13.2393 400.101 13.5205 400.111 13.8066" fill="#77787B"></path><path fill-rule="evenodd" clip-rule="evenodd" d="M393.27 16.0649C393.27 16.275 393.139 16.275 392.929 16.3406C392.719 16.4063 392.377 16.3406 392.299 16.3406C392.271 16.3447 392.243 16.3425 392.217 16.3342C392.191 16.326 392.166 16.3118 392.146 16.2929C392.126 16.274 392.11 16.2507 392.1 16.2249C392.09 16.199 392.086 16.1713 392.089 16.1437C392.089 15.9336 392.443 15.7892 392.929 15.7892C393.139 15.7892 393.27 15.868 393.27 15.9993" fill="#77787B"></path><path fill-rule="evenodd" clip-rule="evenodd" d="M390.749 16.7608L390.474 16.682L390.605 16.4062L390.881 16.485L390.749 16.7608Z" fill="#77787B"></path><path fill-rule="evenodd" clip-rule="evenodd" d="M395.043 15.579L395.463 15.9992L395.043 16.3406L394.636 15.9992L395.043 15.579Z" fill="#77787B"></path><path fill-rule="evenodd" clip-rule="evenodd" d="M396.855 16.0649C396.855 16.275 396.986 16.275 397.196 16.3406C397.406 16.4063 397.682 16.3406 397.826 16.3406C397.879 16.3379 397.929 16.3166 397.967 16.2806C398.006 16.2445 398.03 16.196 398.036 16.1437C398.036 15.9336 397.682 15.7892 397.196 15.7892C396.986 15.7892 396.855 15.868 396.855 15.9993" fill="#77787B"></path><path d="M399.557 16.4064L399.277 16.4764L399.347 16.7567L399.627 16.6866L399.557 16.4064Z" fill="#77787B"></path><path fill-rule="evenodd" clip-rule="evenodd" d="M391.366 33.6586C391.366 33.6586 391.432 34.6959 391.432 35.7988C391.432 36.9017 391.366 38.149 391.366 38.149H392.482C392.482 38.149 392.404 36.7047 392.404 35.7988C392.404 34.8928 392.482 33.6586 392.482 33.6586H391.366Z" fill="#77787B"></path><path fill-rule="evenodd" clip-rule="evenodd" d="M392.338 35.7988C392.338 35.7988 393.034 35.0372 393.31 34.6959L394.15 33.6586H394.846C394.846 33.6586 393.533 35.116 393.31 35.3917L392.614 35.9432L392.338 35.7988Z" fill="#77787B"></path><path fill-rule="evenodd" clip-rule="evenodd" d="M393.1 35.5231L394.977 38.149H393.796L392.404 36.0745L392.338 35.8119L393.1 35.5231Z" fill="#77787B"></path><path fill-rule="evenodd" clip-rule="evenodd" d="M384.985 33.6586H385.957V35.4574C385.957 36.1533 385.747 37.8733 387.139 37.8733C388.242 37.8733 388.452 36.9804 388.452 36.0745V33.6586H389.069V35.7988C389.069 36.836 389.069 38.2146 386.994 38.2146C384.92 38.2146 385.051 36.7047 385.051 36.3633L384.985 33.6586Z" fill="#77787B"></path><path fill-rule="evenodd" clip-rule="evenodd" d="M397.065 38.149C397.241 37.6083 397.447 37.078 397.682 36.5603C398.036 35.6018 398.312 34.9716 398.312 34.9716C398.312 34.9716 398.798 36.0745 399.074 36.7704C399.349 37.4662 399.559 38.149 399.559 38.149H400.675C400.675 38.149 400.19 36.9804 399.704 35.8775C399.415 35.2473 398.864 33.6586 398.864 33.6586H398.312C398.312 33.6586 397.275 36.0745 396.999 36.7704C396.723 37.4662 396.369 38.149 396.369 38.149H397.065Z" fill="#77787B"></path><path d="M399.349 36.429H397.406V36.836H399.349V36.429Z" fill="#77787B"></path><path fill-rule="evenodd" clip-rule="evenodd" d="M404.982 33.8687L404.837 34.5646L404.693 34.499C404.627 34.3529 404.52 34.2292 404.384 34.1429C404.249 34.0567 404.092 34.0116 403.931 34.0132C403.38 34.0132 403.236 34.3545 403.236 34.6303C403.236 34.906 403.446 35.1817 403.997 35.4574C404.549 35.7331 405.179 36.0089 405.179 36.836C405.179 37.6632 404.496 38.2672 403.524 38.2672C402.553 38.2672 402.408 37.9915 402.408 37.9915L402.619 37.2299H402.684C402.735 37.4185 402.843 37.5867 402.994 37.7113C403.144 37.8359 403.33 37.9109 403.524 37.9258C404.207 37.9258 404.417 37.6501 404.417 37.1643C404.417 36.6785 403.8 36.4815 403.314 36.2715C403.058 36.1565 402.837 35.9733 402.678 35.7418C402.518 35.5103 402.425 35.2393 402.408 34.9585C402.422 34.7721 402.472 34.5902 402.556 34.4232C402.639 34.2562 402.755 34.1074 402.897 33.9854C403.039 33.8633 403.203 33.7705 403.38 33.7122C403.558 33.6539 403.745 33.6312 403.931 33.6455C404.302 33.627 404.669 33.7233 404.982 33.9212" fill="#77787B"></path><path d="M412.4 48.0882H377.423V4.13H412.4V48.0882ZM378.381 47.1297H411.442V5.08847H378.381V47.1297Z" fill="#77787B"></path><path d="M383.252 41.891H382.911C383.055 41.1557 383.174 40.3417 383.279 39.4489H383.541C383.856 40.1316 384.119 40.7618 384.355 41.1426C384.652 40.5927 384.92 40.0273 385.156 39.4489H385.393C385.471 40.3154 385.589 41.1295 385.734 41.891H385.143C385.143 41.3133 385.064 40.775 384.985 40.2629C384.565 41.1382 384.316 41.6897 384.237 41.9172H384.093C384.001 41.6678 383.751 41.1426 383.331 40.3285C383.258 40.8465 383.214 41.3681 383.2 41.891" fill="#77787B"></path><path d="M385.944 41.8911C386.285 41.1689 386.627 40.3549 386.968 39.4227H387.257C387.545 40.263 387.878 41.087 388.255 41.8911H387.625C387.559 41.681 387.493 41.4446 387.401 41.182H386.968H386.548C386.469 41.3921 386.391 41.6285 386.312 41.8911H385.944ZM386.706 40.8932H387.047H387.362L387.034 40.0923L386.706 40.8932Z" fill="#77787B"></path><path d="M388.583 41.891C388.583 41.5627 388.583 41.0638 388.583 40.3811C388.583 40.0922 388.583 39.7771 388.583 39.4489H388.911C389.187 39.7902 389.686 40.3417 390.434 41.1032V40.4467C390.434 40.2366 390.434 39.9084 390.434 39.4489H390.644C390.644 39.9084 390.644 40.3548 390.644 40.7618V41.287C390.644 41.4446 390.644 41.6284 390.644 41.8385H390.342C390.08 41.4971 389.568 40.9325 388.793 40.1316V40.8931C388.793 41.3527 388.793 41.7072 388.793 41.9566H388.504" fill="#77787B"></path><path d="M391.038 41.8911C391.38 41.1689 391.721 40.3549 392.062 39.4227H392.338C392.629 40.2634 392.967 41.0874 393.349 41.8911H392.719C392.658 41.681 392.579 41.4446 392.482 41.182H392.049H391.629C391.55 41.3921 391.485 41.6285 391.406 41.8911H391.038ZM391.734 40.9195H392.075H392.377L392.062 40.1185L391.734 40.9195Z" fill="#77787B"></path><path d="M395.279 41.6547C395.288 41.5366 395.288 41.4182 395.279 41.3002C395.288 41.134 395.288 40.9674 395.279 40.8012H395.896C395.887 40.9587 395.887 41.1165 395.896 41.2739V41.4708C395.896 41.5496 395.896 41.6678 395.896 41.786C395.602 41.8748 395.297 41.9234 394.99 41.9304C394.617 41.9453 394.25 41.8292 393.953 41.6021C393.825 41.4902 393.724 41.3504 393.658 41.1933C393.592 41.0363 393.562 40.8662 393.572 40.6962C393.562 40.5191 393.592 40.3419 393.66 40.1781C393.728 40.0143 393.833 39.8682 393.966 39.7509C394.251 39.5189 394.61 39.3976 394.977 39.4095H395.397C395.556 39.4511 395.71 39.5082 395.857 39.5802C395.806 39.6932 395.771 39.8124 395.752 39.9347C395.679 39.8323 395.585 39.7471 395.476 39.6852C395.329 39.5895 395.151 39.5521 394.977 39.5802C394.856 39.5772 394.736 39.6003 394.625 39.6479C394.514 39.6954 394.415 39.7664 394.334 39.8559C394.155 40.0729 394.066 40.35 394.084 40.6305C394.068 40.9026 394.147 41.172 394.308 41.3921C394.386 41.4803 394.484 41.5497 394.593 41.5952C394.702 41.6406 394.82 41.661 394.938 41.6547C395.051 41.6728 395.166 41.6728 395.279 41.6547Z" fill="#77787B"></path><path d="M396.356 41.9041C396.373 41.6243 396.373 41.3437 396.356 41.0638V40.2892C396.37 40.0049 396.37 39.72 396.356 39.4357H397.052C397.27 39.4475 397.489 39.4475 397.708 39.4357C397.703 39.4881 397.703 39.5409 397.708 39.5933C397.703 39.6457 397.703 39.6984 397.708 39.7508H396.894V40.5255H397.104H397.682C397.676 40.5779 397.676 40.6307 397.682 40.6831C397.677 40.7355 397.677 40.7882 397.682 40.8406C397.494 40.8236 397.305 40.8236 397.117 40.8406H396.894V41.694H397.065H397.708C397.69 41.7983 397.69 41.9049 397.708 42.0092H396.894H396.356" fill="#77787B"></path><path d="M398.312 41.891H397.984C398.124 41.1557 398.242 40.3417 398.338 39.4489H398.614C398.916 40.1316 399.192 40.7618 399.428 41.1426C399.727 40.5957 399.99 40.0299 400.216 39.4489H400.518C400.597 40.3154 400.702 41.1295 400.846 41.891H400.255C400.255 41.3133 400.176 40.775 400.111 40.2629C399.691 41.1382 399.441 41.6897 399.362 41.9172H399.218C399.126 41.6678 398.863 41.1426 398.456 40.3285C398.378 40.9719 398.325 41.4971 398.312 41.891Z" fill="#77787B"></path><path d="M401.253 41.9041C401.253 41.7334 401.253 41.4446 401.253 41.0638V40.2892C401.253 39.9609 401.253 39.6852 401.253 39.4357H401.949C402.163 39.4476 402.378 39.4476 402.592 39.4357C402.592 39.5014 402.592 39.5539 402.592 39.5933C402.592 39.6327 402.592 39.6721 402.592 39.7508H401.791V40.5255H402.001H402.566V40.8406C402.383 40.8234 402.198 40.8234 402.015 40.8406H401.791V41.694H401.962H402.592C402.592 41.694 402.592 41.8122 402.592 41.8516C402.592 41.891 402.592 41.9435 402.592 42.0092H401.791H401.253" fill="#77787B"></path><path d="M403.052 41.891C403.052 41.5627 403.052 41.0638 403.052 40.3811C403.052 40.0922 403.052 39.7771 403.052 39.4489H403.393C403.669 39.7902 404.168 40.3417 404.916 41.1032V40.4467C404.916 40.2366 404.916 39.9084 404.916 39.4489H405.218C405.218 39.9084 405.218 40.3548 405.218 40.7618V41.287C405.206 41.4706 405.206 41.6548 405.218 41.8385H404.903C404.42 41.2441 403.907 40.6744 403.367 40.1316V40.8931C403.367 41.3527 403.367 41.7072 403.367 41.9566H403.065" fill="#77787B"></path><path d="M405.547 39.7508C405.552 39.6985 405.552 39.6457 405.547 39.5933C405.552 39.5409 405.552 39.4881 405.547 39.4357H406.466H407.372C407.354 39.54 407.354 39.6465 407.372 39.7508C407.153 39.7385 406.934 39.7385 406.715 39.7508V39.8953C406.715 40.6962 406.715 41.3658 406.715 41.9172H406.151C406.151 41.3789 406.151 40.7093 406.151 39.8953V39.7508H405.494" fill="#77787B"></path><path d="M388.137 45.0421C388.186 44.9023 388.217 44.7566 388.229 44.6088H388.32C388.347 44.7164 388.407 44.813 388.491 44.8846C388.575 44.9461 388.676 44.9784 388.78 44.9765C388.837 44.9805 388.894 44.9734 388.948 44.9553C389.002 44.9373 389.052 44.9088 389.095 44.8714C389.131 44.8404 389.16 44.8021 389.181 44.7592C389.201 44.7162 389.212 44.6695 389.213 44.622C389.213 44.5696 389.2 44.5182 389.174 44.4724C389.149 44.4266 389.113 44.3877 389.069 44.3594L388.636 44.1099C388.491 44.045 388.365 43.9458 388.268 43.8211C388.19 43.705 388.153 43.5665 388.163 43.4272C388.156 43.3263 388.173 43.2253 388.212 43.1319C388.25 43.0385 388.31 42.9553 388.386 42.8888C388.463 42.8169 388.554 42.7612 388.654 42.7251C388.753 42.689 388.858 42.6733 388.964 42.6788C389.064 42.666 389.166 42.666 389.266 42.6788C389.355 42.7046 389.439 42.7445 389.515 42.7969C389.473 42.9128 389.438 43.0312 389.41 43.1514H389.331C389.305 43.058 389.244 42.9782 389.161 42.9282C389.084 42.9012 389.001 42.9012 388.924 42.9282C388.831 42.9244 388.738 42.9521 388.662 43.007C388.628 43.0335 388.601 43.0675 388.583 43.1062C388.565 43.145 388.556 43.1874 388.557 43.2302C388.557 43.2843 388.571 43.3376 388.596 43.3855C388.621 43.4334 388.657 43.4747 388.701 43.5059L389.108 43.7291C389.259 43.7949 389.391 43.899 389.489 44.0311C389.567 44.1475 389.608 44.2848 389.607 44.425C389.607 44.5301 389.587 44.6342 389.546 44.7312C389.506 44.8282 389.446 44.916 389.371 44.9896C389.285 45.0707 389.184 45.1334 389.074 45.1741C388.963 45.2147 388.845 45.2323 388.727 45.2259C388.632 45.2387 388.535 45.2387 388.439 45.2259C388.328 45.2042 388.221 45.1643 388.124 45.1078" fill="#77787B"></path><path d="M389.765 42.7182H390.447C390.583 43.0991 390.75 43.4681 390.946 43.8211C391.141 43.4671 391.308 43.0984 391.445 42.7182H391.813C391.669 42.9475 391.538 43.1842 391.419 43.4272C391.275 43.7029 391.156 43.9393 391.078 44.1362V44.5826C391.062 44.7748 391.062 44.9681 391.078 45.1603H390.5C390.52 44.9683 390.52 44.7746 390.5 44.5826V44.1362C390.408 43.9787 390.29 43.7554 390.132 43.4535C390.001 43.2007 389.857 42.9553 389.699 42.7182" fill="#77787B"></path><path d="M392.049 45.0421C392.098 44.9023 392.129 44.7566 392.141 44.6088H392.233C392.259 44.7164 392.319 44.8129 392.404 44.8845C392.486 44.9479 392.588 44.9804 392.692 44.9765C392.752 44.9754 392.811 44.962 392.865 44.9371C392.919 44.9123 392.968 44.8765 393.008 44.832C393.042 44.8003 393.069 44.7616 393.087 44.7186C393.105 44.6756 393.114 44.6292 393.113 44.5826C393.115 44.5312 393.104 44.4802 393.081 44.4342C393.058 44.3883 393.024 44.349 392.981 44.32L392.548 44.0705C392.402 44.0091 392.275 43.9093 392.18 43.7817C392.103 43.6656 392.066 43.5271 392.075 43.3878C392.069 43.2869 392.085 43.1859 392.124 43.0925C392.163 42.9991 392.222 42.9159 392.299 42.8494C392.376 42.7775 392.467 42.7218 392.566 42.6857C392.665 42.6496 392.771 42.6339 392.876 42.6394C393.075 42.64 393.27 42.6944 393.441 42.7969C393.382 42.9076 393.342 43.0275 393.323 43.1514C393.296 43.058 393.235 42.9781 393.152 42.9282C393.076 42.9012 392.992 42.9012 392.916 42.9282C392.822 42.9263 392.73 42.9539 392.653 43.007C392.619 43.0335 392.592 43.0675 392.574 43.1062C392.556 43.1449 392.547 43.1874 392.548 43.2302C392.548 43.2843 392.562 43.3375 392.587 43.3855C392.612 43.4334 392.648 43.4747 392.692 43.5059L393.099 43.7291C393.248 43.7982 393.379 43.9017 393.48 44.0311C393.558 44.1475 393.6 44.2848 393.598 44.425C393.599 44.5301 393.578 44.6342 393.537 44.7312C393.497 44.8281 393.437 44.916 393.362 44.9896C393.277 45.0707 393.175 45.1334 393.065 45.1741C392.954 45.2147 392.836 45.2323 392.719 45.2259C392.623 45.2387 392.526 45.2387 392.43 45.2259C392.319 45.2042 392.213 45.1642 392.115 45.1078" fill="#77787B"></path><path d="M393.717 43.0201C393.717 42.9545 393.717 42.902 393.717 42.8626C393.717 42.8232 393.717 42.7838 393.717 42.705H394.623H395.529V43.0201C395.31 43.0075 395.091 43.0075 394.872 43.0201V43.1646C394.872 43.9655 394.872 44.6351 394.872 45.1865H394.294C394.294 44.6482 394.294 43.9786 394.294 43.1646V42.9939H393.638" fill="#77787B"></path><path d="M395.896 45.1734C395.896 45.0027 395.896 44.7139 395.896 44.3331V43.5191C395.896 43.1908 395.896 42.902 395.896 42.6656H396.592H397.235C397.235 42.7313 397.235 42.7838 397.235 42.8232C397.235 42.8626 397.235 42.902 397.235 42.9808C396.894 42.9808 396.632 42.9808 396.435 42.9808V43.7554H396.645H397.209V44.0705C397.026 44.0533 396.841 44.0533 396.658 44.0705H396.435V44.832H396.605H397.209C397.209 44.8977 397.209 44.9502 397.209 44.9896C397.209 45.029 397.209 45.0815 397.209 45.1472C396.868 45.1472 396.605 45.1472 396.408 45.1472C396.229 45.1356 396.049 45.1356 395.87 45.1472" fill="#77787B"></path><path d="M397.813 45.1603H397.485C397.629 44.4251 397.747 43.611 397.852 42.7182H398.115C398.43 43.4009 398.693 43.9655 398.929 44.4119C399.232 43.8648 399.499 43.2991 399.73 42.7182H400.019C400.098 43.5848 400.216 44.3988 400.36 45.1603H399.835C399.791 44.6096 399.716 44.0617 399.612 43.5191C399.192 44.3857 398.942 44.9371 398.863 45.1603H398.719C398.632 44.924 398.382 44.3988 397.971 43.5848C397.891 44.1025 397.839 44.624 397.813 45.1472" fill="#77787B"></path><path d="M400.649 45.042C400.703 44.9027 400.738 44.7571 400.754 44.6087H400.833C400.864 44.7177 400.928 44.8142 401.017 44.8845C401.098 44.95 401.201 44.9827 401.306 44.9764C401.42 44.9806 401.532 44.9433 401.621 44.8713C401.685 44.8039 401.723 44.7151 401.726 44.6219C401.728 44.5705 401.717 44.5195 401.694 44.4735C401.671 44.4276 401.637 44.3883 401.595 44.3593C401.452 44.2658 401.303 44.1824 401.148 44.1098C401.006 44.0413 400.881 43.9427 400.781 43.821C400.709 43.7022 400.673 43.5656 400.676 43.4271C400.672 43.3265 400.69 43.2264 400.728 43.1334C400.767 43.0405 400.825 42.957 400.899 42.8888C400.978 42.8164 401.072 42.7606 401.173 42.7245C401.275 42.6885 401.382 42.6729 401.49 42.6787C401.585 42.6659 401.683 42.6659 401.778 42.6787C401.871 42.7044 401.96 42.7443 402.041 42.7968C401.994 42.9122 401.954 43.0307 401.923 43.1513C401.891 43.0605 401.832 42.9822 401.752 42.9281C401.676 42.9011 401.592 42.9011 401.516 42.9281C401.422 42.9243 401.33 42.952 401.253 43.0069C401.22 43.0334 401.193 43.0674 401.174 43.1061C401.156 43.1449 401.147 43.1873 401.148 43.2301C401.146 43.2833 401.157 43.3362 401.18 43.3842C401.203 43.4322 401.237 43.474 401.28 43.5058L401.687 43.7291C401.839 43.7985 401.974 43.9018 402.08 44.031C402.159 44.1474 402.2 44.2847 402.199 44.4249C402.199 44.53 402.178 44.6341 402.138 44.7311C402.097 44.8281 402.037 44.9159 401.962 44.9895C401.877 45.0706 401.776 45.1333 401.665 45.174C401.554 45.2146 401.437 45.2323 401.319 45.2258C401.219 45.2386 401.117 45.2386 401.017 45.2258C400.907 45.2001 400.801 45.1604 400.702 45.1077" fill="#77787B"></path><path d="M392.58 50.202C392.58 49.9487 392.606 49.745 392.658 49.591C392.711 49.4361 392.788 49.3167 392.89 49.2329C392.994 49.1491 393.123 49.1072 393.279 49.1072C393.394 49.1072 393.495 49.1306 393.582 49.1774C393.668 49.2232 393.74 49.2899 393.797 49.3776C393.853 49.4644 393.897 49.5706 393.93 49.6963C393.962 49.821 393.978 49.9896 393.978 50.202C393.978 50.4535 393.952 50.6566 393.9 50.8116C393.849 50.9655 393.771 51.0849 393.668 51.1697C393.566 51.2535 393.436 51.2954 393.279 51.2954C393.073 51.2954 392.91 51.2213 392.792 51.0732C392.651 50.8949 392.58 50.6045 392.58 50.202ZM392.851 50.202C392.851 50.5538 392.892 50.7882 392.974 50.9051C393.056 51.0211 393.158 51.0791 393.279 51.0791C393.4 51.0791 393.501 51.0206 393.583 50.9037C393.666 50.7867 393.707 50.5528 393.707 50.202C393.707 49.8493 393.666 49.6149 393.583 49.499C393.501 49.383 393.399 49.325 393.276 49.325C393.155 49.325 393.059 49.3762 392.987 49.4785C392.896 49.6091 392.851 49.8503 392.851 50.202ZM394.247 50.202C394.247 49.9487 394.273 49.745 394.324 49.591C394.377 49.4361 394.454 49.3167 394.557 49.2329C394.66 49.1491 394.79 49.1072 394.945 49.1072C395.06 49.1072 395.161 49.1306 395.248 49.1774C395.335 49.2232 395.406 49.2899 395.463 49.3776C395.519 49.4644 395.564 49.5706 395.596 49.6963C395.628 49.821 395.644 49.9896 395.644 50.202C395.644 50.4535 395.618 50.6566 395.567 50.8116C395.515 50.9655 395.438 51.0849 395.334 51.1697C395.232 51.2535 395.102 51.2954 394.945 51.2954C394.739 51.2954 394.577 51.2213 394.459 51.0732C394.317 50.8949 394.247 50.6045 394.247 50.202ZM394.517 50.202C394.517 50.5538 394.558 50.7882 394.64 50.9051C394.723 51.0211 394.825 51.0791 394.945 51.0791C395.066 51.0791 395.168 51.0206 395.249 50.9037C395.332 50.7867 395.374 50.5528 395.374 50.202C395.374 49.8493 395.332 49.6149 395.249 49.499C395.168 49.383 395.065 49.325 394.943 49.325C394.822 49.325 394.725 49.3762 394.653 49.4785C394.562 49.6091 394.517 49.8503 394.517 50.202ZM397.278 49.6407L397.017 49.6612C396.993 49.5579 396.96 49.4829 396.917 49.4361C396.846 49.3611 396.758 49.3236 396.654 49.3236C396.57 49.3236 396.497 49.3469 396.433 49.3937C396.351 49.4541 396.285 49.5423 396.238 49.6583C396.19 49.7742 396.165 49.9394 396.163 50.1538C396.226 50.0573 396.304 49.9857 396.395 49.9389C396.487 49.8922 396.583 49.8688 396.683 49.8688C396.859 49.8688 397.008 49.9336 397.131 50.0632C397.254 50.1918 397.316 50.3584 397.316 50.5631C397.316 50.6976 397.287 50.8228 397.229 50.9387C397.171 51.0537 397.092 51.1419 396.99 51.2033C396.889 51.2647 396.774 51.2954 396.645 51.2954C396.426 51.2954 396.247 51.215 396.109 51.0542C395.971 50.8924 395.901 50.6264 395.901 50.2561C395.901 49.842 395.978 49.5409 396.131 49.3528C396.264 49.1891 396.444 49.1072 396.67 49.1072C396.839 49.1072 396.977 49.1545 397.084 49.249C397.192 49.3435 397.257 49.4741 397.278 49.6407ZM396.204 50.5645C396.204 50.6552 396.223 50.7419 396.261 50.8247C396.3 50.9076 396.354 50.9709 396.423 51.0147C396.492 51.0576 396.565 51.0791 396.641 51.0791C396.752 51.0791 396.848 51.0342 396.928 50.9446C397.007 50.8549 397.047 50.7331 397.047 50.5792C397.047 50.431 397.008 50.3146 396.929 50.2298C396.85 50.1441 396.751 50.1012 396.631 50.1012C396.512 50.1012 396.411 50.1441 396.328 50.2298C396.245 50.3146 396.204 50.4262 396.204 50.5645Z" fill="#77787B"></path><path d="M353.606 51.1475C352.424 50.7798 352.187 49.7688 352.293 48.6528H353.986C353.986 49.4275 353.986 50.0708 354.945 50.0708C355.064 50.0777 355.184 50.058 355.295 50.0133C355.406 49.9685 355.506 49.8998 355.588 49.812C355.669 49.7242 355.73 49.6195 355.767 49.5054C355.803 49.3913 355.814 49.2705 355.798 49.1518C355.798 47.7075 352.398 47.6156 352.398 45.2128C352.398 43.8999 353.002 42.9414 355.024 42.9414C356.678 42.9414 357.505 43.6767 357.387 45.3704H355.733C355.733 44.7664 355.627 44.1493 354.945 44.1493C354.829 44.1373 354.712 44.1509 354.602 44.1893C354.493 44.2278 354.393 44.29 354.31 44.3716C354.227 44.4532 354.163 44.5521 354.123 44.6612C354.083 44.7703 354.068 44.887 354.078 45.0028C354.078 46.5389 357.492 46.4076 357.492 48.9417C357.557 49.4346 357.435 49.934 357.151 50.342C356.867 50.75 356.441 51.0372 355.956 51.1475" fill="#77787B"></path><path d="M361.602 45.5543C361.602 44.8059 361.483 44.1494 360.591 44.1494C359.698 44.1494 359.54 45.5674 359.54 47.1298C359.54 49.6639 359.79 50.1103 360.748 50.1103C361.035 50.1062 361.319 50.0529 361.588 49.9527V48.1671H360.669V46.9198H363.295V51.0162L362.508 51.1475H359.619C358.043 50.7536 357.833 49.5063 357.833 47.0379C357.833 45.0028 357.938 42.9415 360.709 42.9415C361.066 42.8883 361.43 42.9195 361.773 43.0327C362.116 43.1459 362.428 43.3378 362.683 43.5931C362.938 43.8484 363.13 44.16 363.243 44.5028C363.357 44.8457 363.388 45.2103 363.335 45.5674" fill="#77787B"></path><path d="M366.486 42.9414C367.956 42.9414 368.757 43.5191 368.875 44.8058V45.3704H367.234C367.234 44.7796 367.09 44.1493 366.407 44.1493C366.29 44.1351 366.172 44.1472 366.061 44.1847C365.949 44.2222 365.848 44.2841 365.763 44.3659C365.679 44.4478 365.614 44.5474 365.573 44.6576C365.532 44.7678 365.517 44.8857 365.527 45.0028C365.527 46.4208 368.442 46.4208 368.875 48.4165V49.585C368.817 49.9638 368.646 50.316 368.383 50.595C368.121 50.8741 367.779 51.0667 367.405 51.1475H365.041C363.873 50.7798 363.637 49.7688 363.728 48.6528H365.409C365.409 49.4275 365.409 50.0708 366.381 50.0708C366.501 50.0801 366.622 50.0621 366.734 50.0182C366.846 49.9743 366.947 49.9056 367.029 49.8173C367.111 49.7289 367.172 49.6232 367.208 49.5079C367.243 49.3927 367.252 49.271 367.234 49.1518C367.234 47.7075 363.82 47.6156 363.82 45.2128C363.82 43.8999 364.424 42.9414 366.446 42.9414" fill="#77787B"></path><path d="M372.197 51.1343H347.645V51.4625H372.197V51.1343Z" fill="#F79239"></path><path d="M369.191 41.4577H368.862V53.13H369.191V41.4577Z" fill="#F79239"></path><path d="M341.657 29.8379V23.8245L345.596 27.7634L354.643 18.7039C352.353 16.4538 349.302 15.1451 346.094 15.0367C342.885 14.9283 339.753 16.0282 337.316 18.1186C334.88 20.2091 333.317 23.1379 332.937 26.3255C332.556 29.5132 333.386 32.7276 335.262 35.3326C337.138 37.9377 339.924 39.7438 343.068 40.3934C346.211 41.0431 349.485 40.4891 352.24 38.841C354.995 37.1929 357.031 34.5708 357.945 31.4934C358.859 28.4161 358.585 25.1076 357.177 22.2227L345.623 33.79" fill="#F79239"></path><path d="M322.37 29.4703L326.952 29.0633L327.031 30.0086L322.449 30.4157" fill="#F79239"></path><path d="M322.685 32.4507C322.462 31.3084 323.105 30.9539 323.893 30.8357L324.077 31.7679C323.644 31.8467 323.289 31.9386 323.394 32.4507C323.404 32.519 323.428 32.5844 323.466 32.6419C323.504 32.6995 323.555 32.7477 323.614 32.783C323.674 32.8183 323.74 32.8398 323.809 32.8459C323.877 32.852 323.947 32.8426 324.011 32.8183C324.812 32.6476 324.484 30.7701 325.823 30.5075C326.532 30.363 327.136 30.5731 327.386 31.7023C327.569 32.6082 327.254 33.1334 326.296 33.2647L326.112 32.3719C326.453 32.2931 326.782 32.1749 326.703 31.7942C326.699 31.7272 326.679 31.6622 326.645 31.6042C326.612 31.5462 326.565 31.4967 326.509 31.4598C326.453 31.4229 326.389 31.3995 326.322 31.3915C326.256 31.3834 326.188 31.3909 326.125 31.4134C325.272 31.5972 325.731 33.4354 324.313 33.7242C323.145 33.9606 322.843 33.1597 322.685 32.4113" fill="#F79239"></path><path d="M323.788 36.2451C324.339 37.6894 325.442 37.2692 326.558 36.836C327.674 36.4027 328.777 35.9957 328.226 34.5383C327.674 33.0809 326.585 33.501 325.456 33.9343C324.326 34.3676 323.223 34.7877 323.788 36.2451ZM324.431 35.9957C324.234 35.4967 324.694 35.2473 325.744 34.8271C326.795 34.407 327.399 34.3282 327.622 34.7877C327.845 35.2473 327.359 35.523 326.309 35.9431C325.259 36.3633 324.707 36.4946 324.523 35.9431" fill="#F79239"></path><path d="M326.178 38.7792C325.456 39.2256 325.469 39.7246 325.876 40.3679C326.558 41.4446 327.556 40.8406 328.502 40.2498C329.447 39.6589 330.445 39.0287 329.815 37.9258C329.289 37.0986 328.502 37.2562 327.806 37.7289C327.307 38.044 326.926 38.5823 327.281 39.1469C327.349 39.2648 327.442 39.3668 327.553 39.4461C327.664 39.5253 327.79 39.58 327.924 39.6064C327.031 40.171 326.742 40.4073 326.519 40.0397C326.491 39.9943 326.476 39.942 326.476 39.8887C326.476 39.8354 326.491 39.7831 326.519 39.7377C326.552 39.6773 326.597 39.6238 326.65 39.5801M328.344 38.4247C328.593 38.2803 329.027 38.0046 329.224 38.3328C329.421 38.6611 329.014 38.9105 328.777 39.0681C328.541 39.2256 328.108 39.4751 327.911 39.16C327.714 38.8449 328.121 38.5823 328.344 38.4247Z" fill="#F79239"></path><path d="M331.22 39.9741C330.524 39.1469 329.985 39.3701 328.672 40.4599C327.596 41.3527 326.966 42.0092 327.727 42.902C328.489 43.7948 329.224 43.2959 330.353 42.4031C331.666 41.3002 331.981 40.8013 331.285 39.9741M330.786 40.3942C331.036 40.6831 330.786 40.8538 329.788 41.7072C328.791 42.5606 328.475 42.7182 328.292 42.4556C328.108 42.193 328.292 41.9829 329.289 41.1426C330.287 40.3023 330.602 40.1054 330.786 40.3942Z" fill="#F79239"></path><path d="M332.953 41.786C332.165 41.0638 331.64 41.3527 330.484 42.6C329.552 43.6372 329.001 44.3594 329.867 45.1472C330.734 45.9349 331.403 45.331 332.349 44.3069C333.491 42.9939 333.74 42.5081 332.953 41.786ZM332.519 42.2061C332.782 42.4556 332.624 42.6656 331.692 43.6766C330.76 44.6876 330.563 44.8583 330.3 44.622C330.038 44.3856 330.222 44.1493 331.128 43.1514C332.033 42.1536 332.244 41.9566 332.519 42.2061Z" fill="#F79239"></path><path d="M333.596 43.3484C333.957 43.3876 334.321 43.3609 334.673 43.2697L335.355 43.7423L332.874 47.458L332.099 46.9066L334.003 44.0443C333.706 44.0706 333.407 44.0706 333.11 44.0443" fill="#F79239"></path><path fill-rule="evenodd" clip-rule="evenodd" d="M369.23 39.5802V27.8948C369.23 21.6743 366.76 15.7085 362.362 11.3087C357.965 6.90899 352.001 4.43549 345.78 4.43201C342.727 4.38328 339.694 4.94201 336.858 6.07571C334.023 7.2094 331.441 8.89545 329.262 11.0358C327.084 13.1762 325.353 15.7283 324.17 18.5436C322.987 21.3589 322.375 24.3814 322.37 27.4352H327.018C327.028 24.9956 327.523 22.5823 328.475 20.3361C329.428 18.09 330.817 16.0558 332.564 14.3522C334.31 12.6486 336.378 11.3097 338.647 10.4135C340.916 9.51738 343.341 9.08188 345.78 9.13244C348.244 9.13244 350.684 9.61774 352.96 10.5606C355.237 11.5035 357.305 12.8856 359.047 14.6278C360.789 16.37 362.171 18.4384 363.114 20.7147C364.057 22.9911 364.543 25.4309 364.543 27.8948V39.5802" fill="#77787B"></path><path d="M329.289 17.0103C329.236 17.1197 329.157 17.2146 329.059 17.2867C328.962 17.3588 328.847 17.4059 328.727 17.424C328.607 17.4421 328.484 17.4307 328.369 17.3906C328.254 17.3505 328.151 17.2831 328.068 17.1941L328.396 16.7083C328.62 16.8528 328.817 16.9709 328.987 16.7083C329.015 16.6776 329.036 16.6414 329.048 16.6019C329.061 16.5625 329.065 16.5208 329.06 16.4797C329.055 16.4386 329.041 16.3991 329.02 16.3638C328.998 16.3285 328.969 16.2982 328.935 16.275C328.515 15.9993 327.832 16.9578 327.136 16.4983C326.782 16.2488 326.611 15.8812 327.005 15.2903C327.051 15.1843 327.123 15.0913 327.214 15.0195C327.305 14.9478 327.413 14.8994 327.527 14.8787C327.641 14.858 327.758 14.8655 327.869 14.9006C327.979 14.9358 328.079 14.9974 328.16 15.0802L327.832 15.5529C327.661 15.4479 327.464 15.3428 327.333 15.5529C327.309 15.5811 327.291 15.6138 327.28 15.6491C327.269 15.6844 327.266 15.7215 327.269 15.7582C327.273 15.7949 327.284 15.8306 327.302 15.863C327.319 15.8954 327.343 15.9239 327.372 15.9468C327.819 16.2488 328.436 15.2509 329.158 15.7367C329.88 16.2225 329.539 16.6296 329.289 17.0497" fill="white"></path><path d="M329.71 14.7388L327.845 14.1086L328.265 13.6228L329.434 14.0692L328.817 12.9663L329.211 12.5068L330.09 14.2924L330.839 14.9226L330.458 15.3559" fill="white"></path><path d="M332.191 13.5703C332.117 13.6659 332.02 13.7416 331.909 13.7907C331.798 13.8397 331.677 13.8607 331.556 13.8516C331.435 13.8425 331.318 13.8036 331.216 13.7385C331.114 13.6734 331.029 13.5841 330.97 13.4784L331.39 13.0714C331.574 13.2683 331.745 13.4259 331.981 13.2027C332.012 13.1756 332.036 13.1422 332.053 13.1049C332.07 13.0675 332.079 13.027 332.079 12.986C332.079 12.9451 332.07 12.9045 332.053 12.8672C332.036 12.8298 332.012 12.7965 331.981 12.7694C331.626 12.4018 330.747 13.1764 330.182 12.5725C329.88 12.2573 329.801 11.8634 330.313 11.3776C330.377 11.2801 330.463 11.1999 330.565 11.1444C330.667 11.0888 330.782 11.0598 330.898 11.0598C331.014 11.0598 331.128 11.0888 331.23 11.1444C331.332 11.1999 331.419 11.2801 331.482 11.3776L331.062 11.7715C330.931 11.614 330.76 11.4827 330.589 11.6402C330.557 11.6647 330.53 11.6964 330.512 11.7329C330.494 11.7693 330.484 11.8096 330.484 11.8503C330.484 11.8911 330.494 11.9313 330.512 11.9678C330.53 12.0042 330.557 12.0359 330.589 12.0604C330.957 12.4543 331.784 11.614 332.388 12.2573C332.992 12.9007 332.546 13.2158 332.217 13.5703" fill="white"></path><path d="M332.953 9.3031L333.228 9.67073L332.716 10.0646L334.108 11.929L333.635 12.2835L332.23 10.4191L331.718 10.7999L331.443 10.4323" fill="white"></path><path d="M334.948 11.3251L333.517 8.93549L334.83 8.14771L335.053 8.51534L334.239 9.00113L334.594 9.59197L335.342 9.14556L335.565 9.51319L334.817 9.9596L335.237 10.6555L336.064 10.1565L336.287 10.5242" fill="white"></path><path d="M336.682 10.2878L335.579 7.71439L336.445 7.34676L337.601 8.92232H337.614L337.299 6.99226L338.126 6.63776L339.229 9.19805L338.703 9.43438L337.85 7.43867V7.4518L338.191 9.64445L337.679 9.85453L336.366 8.08202H336.353L337.207 10.0646" fill="white"></path><path d="M340.423 7.41244C340.266 6.69031 340.121 6.00756 341.067 5.79749C341.658 5.67932 341.946 5.94192 342.052 6.54588L341.5 6.65092C341.421 6.29642 341.329 6.17825 341.159 6.20451C340.988 6.23077 340.857 6.58527 341.001 7.29427C341.146 8.00328 341.264 8.29213 341.579 8.21335C341.894 8.13457 341.763 7.81946 341.723 7.59626L342.288 7.47809C342.445 8.21335 342.209 8.51534 341.671 8.62037C340.725 8.83045 340.581 8.13457 340.423 7.41244Z" fill="white"></path><path d="M342.97 8.34461L342.682 5.56112L344.205 5.40356L344.244 5.83684L343.312 5.92875L343.377 6.6115L344.244 6.51959L344.283 6.95287L343.417 7.04478L343.509 7.85882L344.467 7.75378L344.507 8.18706" fill="white"></path><path d="M345.609 7.00544H345.767C346.213 7.00544 346.174 7.29429 346.174 7.62253C346.15 7.80463 346.172 7.98995 346.24 8.16085H346.804C346.776 7.88585 346.776 7.60868 346.804 7.33368C346.818 7.256 346.812 7.17628 346.789 7.10105C346.765 7.02581 346.724 6.95721 346.669 6.90084C346.614 6.84448 346.547 6.80197 346.472 6.77679C346.397 6.75161 346.318 6.74447 346.24 6.75597C346.402 6.73318 346.548 6.64711 346.646 6.51665C346.745 6.38619 346.787 6.22199 346.765 6.0601C346.765 5.9768 346.748 5.89435 346.716 5.81772C346.683 5.74109 346.635 5.67185 346.575 5.61419C346.515 5.55653 346.444 5.51164 346.366 5.48222C346.288 5.4528 346.205 5.43946 346.122 5.443H345.032V8.14772H345.623M345.623 5.78437H345.872C346.056 5.78437 346.174 5.88941 346.174 6.15201C346.174 6.4146 346.108 6.55903 345.872 6.55903H345.623V5.78437Z" fill="white"></path><path d="M349.273 5.62676L349.22 6.0863L348.564 6.00752L348.301 8.33148L347.724 8.2527L347.986 5.94187L347.343 5.87623L347.395 5.41669" fill="white"></path><path d="M349.352 8.48903L349.89 5.75806L350.468 5.86309L349.916 8.6072" fill="white"></path><path d="M350.52 8.73852L351.282 6.04694L352.686 6.44083L352.568 6.86098L351.728 6.62464L351.531 7.30739L352.332 7.54372L352.214 7.95074L351.413 7.72754L351.085 8.89608" fill="white"></path><path d="M352.306 9.28994L353.277 6.664L353.816 6.86095L352.857 9.48688" fill="white"></path><path d="M354.013 8.43657C354.328 7.76695 354.63 7.1236 355.496 7.53062C355.611 7.571 355.714 7.6383 355.798 7.72689C355.881 7.81548 355.942 7.92277 355.976 8.03978C356.009 8.15679 356.014 8.2801 355.99 8.3994C355.966 8.51869 355.914 8.63049 355.838 8.72542L355.312 8.48908C355.483 8.14771 355.483 7.99016 355.312 7.92451C355.142 7.85886 354.84 8.04267 354.538 8.68603C354.236 9.32938 354.131 9.63137 354.433 9.77579C354.735 9.92022 354.813 9.56572 354.918 9.36877L355.444 9.61824C355.115 10.2879 354.748 10.3798 354.249 10.1434C353.382 9.7364 353.684 9.09305 353.999 8.43657" fill="white"></path><path d="M357.439 9.27684L356.507 10.1565L356.98 10.4454M355.234 10.5898L357.426 8.63348L358.083 9.0405L357.242 11.8109L356.717 11.4826L356.914 10.8787L356.245 10.4585L355.772 10.8918L355.234 10.5898Z" fill="white"></path><path d="M360.394 10.7605L360.105 11.115L359.593 10.7211L358.148 12.5461L357.689 12.1916L359.133 10.3534L358.621 9.95955L358.91 9.59192" fill="white"></path><path d="M358.949 13.2289L360.853 11.1807L361.286 11.5877L359.383 13.6359" fill="white"></path><path d="M360.446 14.7781C361.09 15.5003 361.615 15.0276 362.166 14.5418C362.718 14.056 363.243 13.5702 362.599 12.8612C361.956 12.1522 361.418 12.6117 360.866 13.0975C360.315 13.5833 359.803 14.0691 360.446 14.7781ZM360.761 14.5024C360.525 14.2661 360.761 14.0166 361.273 13.544C361.785 13.0713 362.061 12.8875 362.284 13.1369C362.508 13.3864 362.284 13.6227 361.759 14.0954C361.234 14.5681 360.971 14.7519 360.761 14.5024Z" fill="white"></path><path d="M361.457 15.9074L363.768 14.3318L364.214 14.9883L363.033 16.6951L364.634 15.6054L364.936 16.0518L362.639 17.6405L362.205 16.9971L363.466 15.2115H363.453L361.759 16.3669" fill="white"></path><defs><clipPath id="clip0_81_246"><rect width="298.37" height="57.26" fill="white"></rect></clipPath></defs></svg> 